<?xml version="1.0" encoding="utf-8"?>
<!-- Generator: Adobe Illustrator 26.1.0, SVG Export Plug-In . SVG Version: 6.00 Build 0)  -->
<svg version="1.1" id="Layer_1" xmlns="http://www.w3.org/2000/svg" xmlns:xlink="http://www.w3.org/1999/xlink" x="0px" y="0px"
	 viewBox="0 0 350 350" style="enable-background:new 0 0 350 350;" xml:space="preserve">
<style type="text/css">
	.st0{fill-rule:evenodd;clip-rule:evenodd;}
</style>
<path class="st0" d="M34.8,76.2c0-19.4,15.7-35.1,35.1-35.1h210.3c19.4,0,35.1,15.7,35.1,35.1v133.2c0,19.4-15.7,35.1-35.1,35.1
	H137.5c-5.6,0-10.9,2.2-14.9,6.2l-52,52c-13.2,13.2-35.9,3.9-35.9-14.9V76.2z M69.8,55.2c-11.6,0-21,9.4-21,21v211.5
	c0,6.2,7.6,9.4,12,5l52-52c6.6-6.6,15.5-10.3,24.8-10.3h142.6c11.6,0,21-9.4,21-21V76.2c0-11.6-9.4-21-21-21H69.8z"/>
</svg>
