<?xml version="1.0" encoding="utf-8"?>
<!-- Generator: Adobe Illustrator 26.1.0, SVG Export Plug-In . SVG Version: 6.00 Build 0)  -->
<svg version="1.1" xmlns="http://www.w3.org/2000/svg" xmlns:xlink="http://www.w3.org/1999/xlink" x="0px" y="0px"
	 viewBox="0 0 250 250" style="enable-background:new 0 0 250 250;" xml:space="preserve">
<style type="text/css">
	.st0{fill-rule:evenodd;clip-rule:evenodd;fill:#70D6FF;}
	.st1{fill:#56E846;}
	.st2{fill-rule:evenodd;clip-rule:evenodd;fill:#FFFFFF;}
</style>
<g id="Layer_2">
	<rect class="st0" width="250" height="250"/>
</g>
<g id="Layer_1">
	<g>
		<g id="Layer_1_00000090975433961055038730000011558034396514308538_">
			<ellipse transform="matrix(0.9578 -0.2875 0.2875 0.9578 -52.199 20.7385)" cx="44.5" cy="188.1" rx="2.9" ry="2.9"/>
		</g>
		<g id="Layer_2_00000098203828767725966170000008046760053989249193_">
			<path class="st1" d="M42.8,216.7c17.9-5.4,10.2-16.4,6.7-20c-0.4-0.5-0.6-1.1-0.1-1.9c0.4-0.8,0.7-1.9,0.9-2.8
				c4.1-1.7,4.5-3.9,3.8-5.4c-0.1-0.4-0.6-0.7-1.2-0.5c-1.6,0.7-2.8,0.8-3.8,1.1c-1.9-3.5-6.4-5.2-10.5-3.5
				c-3.5,1.5-5.9,5.2-5.2,9.1c0.4,2.9,2.2,5.1,4.5,6.2c1,0.5,1.3,2,0.4,2.7c-0.9,0.7-2.4,1.4-4.7,2c-3.6,1.1-6.4,0.6-8-0.4
				c-1.3-0.7-2.7,0.4-2.6,1.6C23,210.8,25.7,221.8,42.8,216.7z M43.6,186.6c1-0.3,2,0.2,2.3,1.2c0.3,1-0.5,1.9-1.3,2.1
				c-0.8,0.2-2-0.2-2.3-1.2C42,187.8,42.6,186.9,43.6,186.6z"/>
		</g>
	</g>
	<g>
		<g id="Layer_1_00000100373397829277985820000002146011552730003849_">
			<ellipse transform="matrix(0.8689 -0.495 0.495 0.8689 1.9253 43.435)" cx="82.9" cy="18.1" rx="2.9" ry="2.9"/>
		</g>
		<g id="Layer_2_00000122704742828121132020000000580907630428651451_">
			<path class="st1" d="M109.9,14.1c-0.8-1-2.6-0.7-3,0.7c-0.4,1.9-2,4.2-5.2,6.1c-2,1.1-3.6,1.8-4.7,2c-1.1,0.2-2-1-1.7-2.1
				c0.8-2.4,0.4-5.2-1.4-7.5c-2.3-3.2-6.6-4-10.1-2.5c-4,1.8-5.9,6.2-4.7,10c-0.9,0.5-1.9,1.3-3.5,2c-0.5,0.3-0.7,0.9-0.5,1.2
				c0.6,1.5,2.6,2.8,6.6,1c0.8,0.5,1.8,1.1,2.7,1.3c0.9,0.2,1.2,0.8,1.3,1.4c0.2,5.1,2.9,18.2,19.1,9
				C120.4,27.7,114.2,18.2,109.9,14.1z M85,16.9c0.5,0.9,0,2.1-0.7,2.5c-0.7,0.4-1.9,0.4-2.5-0.5c-0.5-0.9-0.2-2,0.7-2.5
				C83.4,15.9,84.4,16,85,16.9z"/>
		</g>
	</g>
	<g>
		<g id="Layer_1_00000036229438373851580270000012305696266454588309_">
			<ellipse transform="matrix(0.3586 -0.9335 0.9335 0.3586 92.264 195.0339)" cx="188.1" cy="30.4" rx="2.9" ry="2.9"/>
		</g>
		<g id="Layer_2_00000079464778873529847040000017361554077064763008_">
			<path class="st1" d="M169.2,52c17.5,6.7,18.1-6.7,17.6-11.7c0-0.7,0.2-1.2,1.1-1.6c0.8-0.3,1.8-1.1,2.5-1.7c4.3,1.2,6-0.3,6.4-2
				c0.1-0.4-0.1-0.9-0.7-1.1c-1.6-0.4-2.7-1.1-3.7-1.4c0.6-3.9-1.9-8-6.1-9.2c-3.7-1-7.8,0.5-9.6,4c-1.4,2.5-1.4,5.4-0.2,7.6
				c0.5,1.1-0.2,2.3-1.3,2.3s-2.8-0.4-4.9-1.2c-3.5-1.4-5.4-3.4-6.1-5.2c-0.6-1.3-2.4-1.4-3-0.3C157.2,35.2,152.5,45.6,169.2,52z
				 M188.3,28.7c1,0.4,1.5,1.4,1.1,2.4c-0.4,1-1.6,1.2-2.4,0.9c-0.8-0.3-1.5-1.4-1.1-2.4S187.3,28.3,188.3,28.7z"/>
		</g>
	</g>
	<g>
		<g id="Layer_1_00000084521004434806716740000007600142693518819968_">
			<ellipse transform="matrix(0.3791 -0.9254 0.9254 0.3791 99.3811 232.9645)" cx="223.3" cy="42.4" rx="2.9" ry="2.9"/>
		</g>
		<g id="Layer_2_00000104705892266550892290000014139896844364146587_">
			<path class="st1" d="M243.1,61.2c0.3-1.2-1-2.4-2.4-1.9c-1.7,0.9-4.5,1-8-0.4c-2.1-0.9-3.6-1.7-4.4-2.5s-0.5-2.2,0.6-2.6
				c2.4-0.8,4.4-2.9,5.1-5.7c1.1-3.8-0.9-7.7-4.3-9.5c-3.9-2.1-8.5-0.8-10.8,2.5c-1-0.4-2.2-0.7-3.7-1.5c-0.6-0.2-1.1,0-1.3,0.4
				c-0.8,1.4-0.6,3.7,3.3,5.8c0.1,0.9,0.3,2.1,0.6,2.9c0.3,0.8,0.1,1.4-0.3,1.9c-3.9,3.3-12.6,13.5,4.7,20.6
				C238.7,77.8,242.4,67.1,243.1,61.2z M225.4,43.3c-0.4,1-1.7,1.3-2.5,1c-0.8-0.3-1.5-1.3-1.1-2.2c0.4-1,1.5-1.4,2.5-1
				S225.8,42.4,225.4,43.3z"/>
		</g>
	</g>
	<g>
		<g id="Layer_1_00000024002709093519287610000017185250211218591623_">
			<ellipse transform="matrix(0.9007 -0.4344 0.4344 0.9007 -28.5866 96.3546)" cx="196.5" cy="110.7" rx="2.7" ry="2.9"/>
		</g>
		<g id="Layer_2_00000095324330950041124850000006702642916615845526_">
			<path class="st1" d="M208,136.9c-17.3,0.8-14.5-12-12.8-16.6c0.1-0.6,0.1-1.2-0.6-1.8c-0.6-0.6-1.3-1.6-1.8-2.4
				c-4.1-0.2-5.3-2.2-5.2-3.9c0-0.4,0.3-0.8,0.9-0.9c1.6,0.1,2.7-0.1,3.7-0.2c0.4-3.9,3.7-6.9,7.8-6.7c3.5,0.3,6.9,3,7.6,6.8
				c0.6,2.8-0.1,5.5-1.7,7.2c-0.7,0.8-0.4,2.3,0.6,2.6s2.6,0.5,4.7,0.4c3.5-0.2,5.7-1.5,6.7-2.9c0.9-1.1,2.5-0.5,2.8,0.7
				C222.9,125.1,224.5,136.2,208,136.9z M196.7,109.1c-1,0-1.7,0.9-1.6,1.9c0.1,1,1.1,1.6,1.9,1.5c0.8,0,1.7-0.9,1.6-1.9
				C198.5,109.6,197.7,109,196.7,109.1z"/>
		</g>
	</g>
	<g>
		<g id="Layer_1_00000143605102034833647660000015610048778392112525_">
			<ellipse transform="matrix(0.7269 -0.6867 0.6867 0.7269 -31.3552 137.1072)" cx="156.7" cy="108" rx="2.7" ry="2.9"/>
		</g>
		<g id="Layer_2_00000159468644960396947560000016652766366522260914_">
			<path class="st1" d="M134.4,119.3c0-1.2,1.5-1.9,2.6-1c1.4,1.3,3.9,2.3,7.5,2c2.2-0.2,3.7-0.5,4.6-1c0.9-0.5,0.9-1.9,0-2.6
				c-2-1.5-3.4-4-3.4-6.8c-0.2-3.8,2.5-6.8,6-7.5c4.1-0.7,8,1.8,9.4,5.5c1-0.1,2.2,0,3.7-0.3c0.6,0,1,0.3,1.1,0.7
				c0.4,1.6-0.2,3.6-4.3,4.4c-0.3,0.8-0.7,1.9-1.2,2.5c-0.5,0.6-0.4,1.2-0.1,1.8c2.8,4.2,8.6,16.3-8.9,17.6
				C134.7,136,133.7,125,134.4,119.3z M154.6,108.1c0.2,1,1.3,1.7,2,1.7c0.8-0.1,1.7-0.7,1.5-1.7c-0.2-1-1.1-1.7-2-1.7
				S154.4,107.1,154.6,108.1z"/>
		</g>
	</g>
	<g>
		<g id="Layer_1_00000180344183483141873170000001190949680730160799_">
			<ellipse transform="matrix(0.6052 -0.7961 0.7961 0.6052 -98.1648 119.7913)" cx="71.7" cy="158.9" rx="2.7" ry="2.9"/>
		</g>
		<g id="Layer_2_00000085939067564950724870000015649828410726404519_">
			<path class="st1" d="M93.9,177c-15,8.5-18.4-4.1-18.9-9c-0.2-0.6-0.5-1.1-1.3-1.4c-0.8-0.2-1.9-0.8-2.7-1.3
				c-3.8,1.7-5.7,0.4-6.4-1.1c-0.2-0.3-0.1-0.9,0.4-1.2c1.5-0.6,2.4-1.3,3.2-1.8c-1.4-3.7,0.1-7.8,3.9-9.5c3.3-1.4,7.5-0.5,9.9,2.6
				c1.9,2.2,2.4,4.9,1.8,7.2c-0.2,1.1,0.7,2.2,1.8,2.1c1.1-0.1,2.5-0.7,4.4-1.8c3-1.7,4.4-3.9,4.7-5.7c0.3-1.3,2-1.6,2.8-0.6
				C101.8,159.6,108.2,168.9,93.9,177z M71.2,157.3c-0.8,0.5-1.1,1.6-0.5,2.4c0.5,0.9,1.7,0.9,2.4,0.5c0.7-0.4,1.1-1.6,0.5-2.4
				C73,156.9,72,156.8,71.2,157.3z"/>
		</g>
	</g>
	<g>
		<g id="Layer_1_00000048465945322783834370000005338675677880439192_">
			<ellipse transform="matrix(0.5824 -0.8129 0.8129 0.5824 -37.1068 103.253)" cx="81.9" cy="87.7" rx="2.7" ry="2.9"/>
		</g>
		<g id="Layer_2_00000049907569445389814040000005493532450737874327_">
			<path class="st1" d="M104.6,105.2c-14.8,8.9-18.5-3.6-19.2-8.4c-0.2-0.6-0.5-1.1-1.4-1.3c-0.8-0.2-1.9-0.8-2.7-1.2
				c-3.7,1.8-5.7,0.6-6.4-0.9c-0.2-0.3-0.1-0.9,0.4-1.2c1.4-0.6,2.3-1.4,3.2-1.9c-1.5-3.6-0.1-7.8,3.6-9.6c3.2-1.5,7.5-0.7,10,2.3
				c1.9,2.2,2.6,4.9,2,7.1c-0.2,1.1,0.8,2.2,1.8,2s2.5-0.8,4.3-1.9c3-1.8,4.3-4,4.5-5.8c0.3-1.3,1.9-1.6,2.8-0.7
				C112,87.7,118.8,96.7,104.6,105.2z M81.4,86.2c-0.8,0.5-1,1.6-0.5,2.4c0.6,0.8,1.7,0.9,2.4,0.5s1-1.6,0.5-2.4
				C83.2,85.8,82.2,85.7,81.4,86.2z"/>
		</g>
	</g>
	<g>
		<g id="Layer_1_00000142149176860606028320000008203265868455387559_">
			<ellipse transform="matrix(0.5355 -0.8445 0.8445 0.5355 -32.4932 69.2715)" cx="46.7" cy="64.2" rx="2.9" ry="2.7"/>
		</g>
		<g id="Layer_2_00000121280674428580537690000009754395820624893881_">
			<path class="st1" d="M21.5,70c0.4-1.2,2.1-1.5,2.9-0.4c0.9,1.6,2.9,3.2,6.4,3.7c2.1,0.3,3.7,0.4,4.7,0.1c1-0.2,1.5-1.6,0.9-2.5
				c-1.4-1.9-1.8-4.6-0.8-7.4c1.2-3.7,4.8-6,8.4-5.9c4.1,0.2,7,3.6,6.9,7.5c1,0.2,2.1,0.5,3.6,0.6c0.6,0.1,0.9,0.6,0.8,1
				c-0.1,1.6-1.5,3.5-5.6,3.2c-0.6,0.7-1.3,1.6-2,2.2c-0.7,0.5-0.8,1.1-0.8,1.7c1.2,4.7,2.4,17.7-14.6,15
				C15.9,86.3,18.8,75.4,21.5,70z M44.6,63.8c-0.2,1,0.6,2,1.3,2.1c0.8,0.1,1.9-0.3,2.1-1.3c0.2-1-0.4-1.9-1.3-2.1
				C45.7,62.4,44.8,62.8,44.6,63.8z"/>
		</g>
	</g>
	<g>
		<g id="Layer_1_00000080924068327122670370000011580640758792406921_">
			<ellipse transform="matrix(0.8445 -0.5355 0.5355 0.8445 -71.8548 136.7005)" cx="199.5" cy="192.1" rx="2.7" ry="2.9"/>
		</g>
		<g id="Layer_2_00000154409553959338424090000009744780367986682287_">
			<path class="st1" d="M214,216.8c-17.1,2.7-15.8-10.3-14.6-15c0.1-0.6-0.1-1.2-0.8-1.7c-0.7-0.5-1.5-1.4-2-2.2
				c-4.1,0.2-5.5-1.6-5.6-3.2c-0.1-0.4,0.2-0.9,0.8-1c1.6,0,2.7-0.4,3.6-0.6c0-3.9,2.8-7.3,6.9-7.5c3.5-0.2,7.2,2.1,8.4,5.9
				c1,2.7,0.6,5.5-0.8,7.4c-0.6,0.9-0.1,2.3,0.9,2.5c1,0.2,2.6,0.2,4.7-0.1c3.5-0.6,5.5-2.1,6.4-3.7c0.7-1.2,2.4-0.8,2.9,0.4
				C227.4,203.3,230.3,214.2,214,216.8z M199.5,190.4c-1,0.2-1.6,1.1-1.3,2.1s1.3,1.4,2.1,1.3s1.6-1.1,1.3-2.1
				C201.4,190.8,200.5,190.3,199.5,190.4z"/>
		</g>
	</g>
	<g>
		<g id="Layer_1_00000176758839336459285530000001047037421861844614_">
			<ellipse transform="matrix(0.7185 -0.6955 0.6955 0.7185 -91.5284 163.1407)" cx="155.8" cy="194.6" rx="2.7" ry="2.9"/>
		</g>
		<g id="Layer_2_00000005262615371844436830000005131748608878493571_">
			<path class="st1" d="M133.6,206.3c0-1.2,1.5-1.9,2.6-1c1.4,1.3,4,2.3,7.5,2c2.2-0.2,3.7-0.5,4.6-1c0.9-0.5,0.9-1.9,0-2.6
				c-2-1.4-3.4-3.9-3.5-6.7c-0.2-3.8,2.5-6.9,5.9-7.6c4.1-0.8,8,1.7,9.5,5.4c1-0.1,2.2,0,3.7-0.3c0.6-0.1,1,0.3,1.1,0.7
				c0.5,1.6-0.2,3.6-4.3,4.4c-0.3,0.8-0.7,1.9-1.2,2.5c-0.5,0.6-0.4,1.2-0.1,1.8c2.9,4.2,8.8,16.2-8.6,17.7
				C134.1,223,132.9,212,133.6,206.3z M153.6,194.8c0.2,1,1.3,1.7,2.1,1.6c0.8-0.1,1.7-0.8,1.5-1.7c-0.2-1-1.1-1.7-2.1-1.6
				C154.1,193.2,153.5,193.8,153.6,194.8z"/>
		</g>
	</g>
	<path class="st2" d="M38.7,161.6L28,167.7c-0.6,0.3-0.8,1.1-0.5,1.7l6.1,10.7c0.2,0.3,0.7,0.3,0.8-0.1l1.1-4.2c0.1-0.5,0.5-1,1-1.2
		l7.2-4.1c0.6-0.3,0.8-1.1,0.5-1.7l-3.9-6.8C40,161.5,39.3,161.3,38.7,161.6z"/>
	<path class="st2" d="M162.9,80.9l-12.2,1.9c-0.7,0.1-1.1,0.7-1,1.4l1.9,12.2c0.1,0.4,0.5,0.5,0.7,0.2l2.5-3.5
		c0.3-0.4,0.8-0.7,1.3-0.8l8.2-1.3c0.7-0.1,1.1-0.7,1-1.4l-1.2-7.7C164.2,81.2,163.5,80.8,162.9,80.9z"/>
	<path class="st2" d="M38.2,34.5l-10.3,6.7c-0.6,0.4-0.7,1.1-0.4,1.7l6.8,10.4c0.2,0.3,0.7,0.2,0.7-0.1l0.9-4.2
		c0.1-0.5,0.4-1,0.9-1.3l7-4.6c0.6-0.4,0.7-1.1,0.4-1.7l-4.3-6.5C39.5,34.3,38.7,34.1,38.2,34.5z"/>
	<path class="st2" d="M168.7,170.5l-12.3,0.6c-0.7,0-1.2,0.6-1.2,1.3l0.6,12.4c0,0.4,0.5,0.5,0.7,0.3l2.9-3.2
		c0.4-0.4,0.9-0.6,1.4-0.7l8.3-0.4c0.7,0,1.2-0.6,1.2-1.3l-0.4-7.8C169.9,170.9,169.3,170.4,168.7,170.5z"/>
	<path class="st2" d="M202,5l-12.2,1.6c-0.7,0.1-1.1,0.7-1.1,1.4l1.6,12.3c0,0.4,0.5,0.5,0.7,0.2l2.6-3.4c0.3-0.4,0.8-0.7,1.4-0.8
		l8.3-1.1c0.7-0.1,1.1-0.7,1.1-1.4l-1-7.7C203.3,5.4,202.7,4.9,202,5z"/>
	<path class="st2" d="M91,61.6l8.3,5.5c0.5,0.3,0.6,0.9,0.3,1.4L94,76.9c-0.2,0.2-0.5,0.2-0.6-0.1l-0.7-3.4
		c-0.1-0.4-0.3-0.8-0.7-1.1l-5.6-3.8c-0.5-0.3-0.6-0.9-0.3-1.4l3.5-5.3C89.9,61.4,90.5,61.3,91,61.6z"/>
	<path class="st2" d="M204,166.6l8.3,5.5c0.5,0.3,0.6,0.9,0.3,1.4l-5.6,8.4c-0.2,0.2-0.5,0.2-0.6-0.1l-0.7-3.4
		c-0.1-0.4-0.3-0.8-0.7-1.1l-5.6-3.8c-0.5-0.3-0.6-0.9-0.3-1.4l3.5-5.3C202.9,166.4,203.5,166.3,204,166.6z"/>
	<path class="st2" d="M53.3,131.7l13.2-2.6c0.7-0.1,1.4,0.4,1.6,1.1l2.8,13.8c0.1,0.4-0.4,0.7-0.7,0.5l-3.9-2.8
		c-0.5-0.3-1.1-0.5-1.7-0.4l-9,1.8c-0.7,0.1-1.4-0.4-1.6-1.1l-1.7-8.7C52.1,132.6,52.6,131.9,53.3,131.7z"/>
	<path class="st2" d="M176.3,87.7l13.2-2.6c0.7-0.1,1.4,0.4,1.6,1.1l2.8,13.8c0.1,0.4-0.4,0.7-0.7,0.5l-3.9-2.8
		c-0.5-0.3-1.1-0.5-1.7-0.4l-9,1.8c-0.7,0.1-1.4-0.4-1.6-1.1l-1.7-8.7C175.1,88.6,175.6,87.9,176.3,87.7z"/>
	<path class="st2" d="M85.1,224.4l9.8,6.5c0.5,0.4,0.6,1.2,0.2,1.8l-8,12c-0.2,0.4-0.7,0.3-0.7-0.1l-0.5-4.6
		c-0.1-0.6-0.3-1.1-0.8-1.4l-6.6-4.4c-0.5-0.4-0.6-1.2-0.2-1.8l5-7.6C83.8,224.3,84.6,224.1,85.1,224.4z"/>
	<path class="st2" d="M231.1,14.4l9.8,6.5c0.5,0.4,0.6,1.2,0.2,1.8l-8,12c-0.2,0.4-0.7,0.3-0.7-0.1l-0.5-4.6
		c-0.1-0.6-0.3-1.1-0.8-1.4l-6.6-4.4c-0.5-0.4-0.6-1.2-0.2-1.8l5-7.6C229.8,14.3,230.6,14.1,231.1,14.4z"/>
</g>
</svg>
