<?xml version="1.0" encoding="utf-8"?>
<!-- Generator: Adobe Illustrator 26.1.0, SVG Export Plug-In . SVG Version: 6.00 Build 0)  -->
<svg version="1.1" id="Layer_1" xmlns="http://www.w3.org/2000/svg" xmlns:xlink="http://www.w3.org/1999/xlink" x="0px" y="0px"
	 viewBox="0 0 350 350" style="enable-background:new 0 0 350 350;" xml:space="preserve">
<g>
	<path d="M283.7,91.1c-13.2,3.7-18.2-16.1-5-19.4l35.9-9.5c12.8-3.7,17.8,15.7,5,19.4L283.7,91.1z M80.9,178.2l143.4,27.3V70.4
		L80.9,97.7V178.2L80.9,178.2z M131.7,208.8l17.4,64.9c8.3,29.7-43,44.2-51.6,14L73,197.7l-13.2-2.5v-14.9H41.2
		c-14.9,0-27.3-12.4-27.3-27.3v-30.6c0-14.9,12.4-27.3,27.3-27.3h18.6V80.3l184.7-34.7v184.3L131.7,208.8z M108.9,204.3l-13.6-2.5
		l22.3,80.1c0.8,4.1,13.2,1.7,12-3.3L108.9,204.3z M59.8,160.1v-44.2H41.2c-3.7,0-7,2.9-7,6.6V153c0,3.7,3.3,7,7,7H59.8z
		 M288.7,148.1c-13.6,0-13.6-20.7,0-20.7h37.2c13.6,0,13.6,20.7,0,20.7H288.7z M278.7,204.3c-13.2-3.3-8.3-23.1,5-19.8l35.9,9.5
		c12.8,3.7,7.8,23.5-5,20.2L278.7,204.3z"/>
</g>
</svg>
