<?xml version="1.0" encoding="utf-8"?>
<!-- Generator: Adobe Illustrator 26.1.0, SVG Export Plug-In . SVG Version: 6.00 Build 0)  -->
<svg version="1.1" id="Layer_1" xmlns="http://www.w3.org/2000/svg" xmlns:xlink="http://www.w3.org/1999/xlink" x="0px" y="0px"
	 viewBox="0 0 25 25" style="enable-background:new 0 0 25 25;" xml:space="preserve">
<style type="text/css">
	.st0{fill:#56E846;}
</style>
<g id="Layer_1_00000090975433961055038730000011558034396514308538_">
	<ellipse cx="16.5" cy="7.1" rx="1.4" ry="1.4"/>
</g>
<g id="Layer_2_00000098203828767725966170000008046760053989249193_">
	<path class="st0" d="M11.8,20.2c8.9,0,6.9-6.2,5.8-8.4c-0.1-0.3-0.1-0.6,0.2-0.9c0.3-0.3,0.6-0.8,0.8-1.2c2.1-0.2,2.6-1.2,2.5-2
		c0-0.2-0.2-0.4-0.5-0.4c-0.8,0.1-1.4,0-1.9,0c-0.4-1.9-2.2-3.3-4.3-3.1c-1.8,0.2-3.4,1.6-3.6,3.5c-0.2,1.4,0.3,2.7,1.2,3.5
		c0.4,0.4,0.3,1.1-0.2,1.3c-0.5,0.2-1.3,0.3-2.4,0.3c-1.8,0-3-0.6-3.6-1.3c-0.5-0.5-1.3-0.2-1.4,0.4C3.6,14.7,3.3,20.2,11.8,20.2z
		 M16.3,6.3c0.5,0,0.9,0.4,0.9,0.9S16.7,8,16.3,8s-0.9-0.4-0.9-0.9C15.4,6.6,15.8,6.3,16.3,6.3z"/>
</g>
</svg>
